<?xml version="1.0" standalone="no"?>
<!DOCTYPE svg PUBLIC "-//W3C//DTD SVG 20010904//EN"
 "http://www.w3.org/TR/2001/REC-SVG-20010904/DTD/svg10.dtd">
<svg version="1.0" xmlns="http://www.w3.org/2000/svg"
 width="1024.000000pt" height="1024.000000pt" viewBox="0 0 1024.000000 1024.000000"
 preserveAspectRatio="xMidYMid meet">
<metadata>
Created by potrace 1.14, written by Peter Selinger 2001-2017
</metadata>
<g transform="translate(0.000000,1024.000000) scale(0.100000,-0.100000)"
fill="#000000" stroke="none">
<path d="M7485 8593 c-11 -2 -27 -7 -35 -10 -8 -4 -18 -7 -22 -8 -5 -2 -11 -4
-15 -5 -5 -1 -11 -2 -15 -1 -5 0 -8 -3 -8 -9 0 -5 -6 -10 -13 -10 -7 0 -35
-20 -61 -45 -27 -25 -53 -45 -57 -45 -5 0 -9 -4 -9 -10 0 -5 -48 -58 -107
-117 -59 -60 -106 -111 -105 -115 1 -5 -2 -8 -7 -8 -5 0 -46 -36 -92 -81 -111
-107 -115 -109 -134 -63 -8 20 -15 43 -15 51 0 8 -4 11 -10 8 -5 -3 -10 -1
-10 6 0 7 -3 10 -6 7 -3 -4 -19 -2 -35 2 -17 5 -29 5 -29 -1 0 -5 -9 -9 -20
-9 -11 0 -45 -26 -76 -57 -32 -32 -62 -57 -68 -55 -6 2 -8 1 -4 -3 4 -4 -24
-38 -62 -76 -37 -38 -65 -69 -61 -69 3 0 -1 -6 -10 -13 -8 -7 -39 -38 -67 -70
-29 -31 -52 -55 -52 -52 0 3 -15 -11 -32 -32 -18 -20 -132 -136 -253 -257
-121 -121 -219 -224 -217 -229 1 -5 -1 -6 -6 -3 -5 3 -29 -17 -55 -44 -26 -27
-47 -47 -47 -44 0 3 -12 -8 -27 -23 -16 -15 -27 -31 -25 -35 1 -4 -3 -8 -8 -8
-6 0 -33 -24 -60 -52 -27 -29 -68 -72 -89 -94 -22 -23 -37 -45 -33 -49 4 -4 3
-5 -3 -4 -5 2 -30 -15 -54 -38 -49 -47 -92 -61 -127 -42 -53 28 -36 107 38
181 24 24 42 46 40 51 -1 4 3 7 8 7 6 0 22 12 35 26 14 15 25 24 25 21 0 -3
16 11 35 30 19 19 35 39 35 44 0 5 5 9 10 9 14 0 50 37 42 44 -3 3 0 6 6 6 14
0 311 298 304 305 -3 3 -1 5 5 5 6 0 56 45 112 100 55 55 98 100 95 100 -3 0
1 6 8 14 7 8 16 12 21 9 4 -2 7 -1 6 4 -2 4 2 19 8 33 28 63 35 98 21 106 -4
3 -4 14 2 24 8 15 6 21 -7 29 -13 7 -14 10 -4 11 8 0 2 9 -13 21 -18 14 -26
28 -23 40 3 10 0 17 -6 16 -6 -1 -12 4 -13 11 -1 6 -3 15 -4 20 -1 4 -2 9 -2
12 0 3 -6 11 -14 18 -8 7 -14 10 -14 7 0 -3 -10 -1 -21 6 -12 6 -44 13 -72 15
-45 3 -84 20 -73 32 3 2 -4 22 -15 43 -11 22 -16 39 -13 39 4 0 -3 8 -14 19
-12 10 -19 20 -17 23 8 8 -86 98 -101 98 -7 0 -18 8 -23 18 -6 9 -11 13 -11 9
0 -4 -8 -3 -19 2 -29 16 -81 23 -151 22 -86 -3 -90 -3 -90 -13 0 -4 -3 -8 -7
-7 -15 2 -53 -14 -53 -22 0 -5 -6 -6 -14 -3 -19 7 -152 -127 -139 -140 4 -3 1
-6 -5 -6 -7 0 -12 -9 -12 -20 0 -11 -4 -20 -8 -20 -5 0 -16 -27 -25 -59 -15
-54 -19 -59 -39 -53 -13 3 -31 14 -42 24 -11 10 -26 18 -33 18 -7 0 -13 5 -13
12 0 6 -3 8 -6 5 -4 -3 -16 -1 -28 5 -26 14 -46 18 -116 18 -73 1 -124 -7
-128 -20 -2 -5 -8 -8 -13 -5 -4 3 -22 -1 -38 -10 -17 -8 -34 -14 -38 -14 -4 1
-17 -1 -28 -5 -62 -24 -56 -23 -118 -24 -32 -1 -46 -6 -41 -13 5 -8 1 -8 -13
0 -11 6 -23 7 -27 4 -6 -7 -17 -8 -83 -14 -18 -2 -33 -6 -33 -10 0 -3 -10 -5
-22 -5 -13 1 -29 -3 -37 -8 -8 -6 -16 -10 -18 -8 -1 1 -4 2 -5 1 -2 0 -14 -2
-28 -4 -43 -8 -55 -10 -65 -16 -5 -4 -28 -10 -50 -14 -22 -4 -44 -10 -50 -13
-11 -7 -25 -10 -63 -16 -13 -1 -27 -8 -30 -13 -7 -10 -70 -29 -85 -25 -4 1 -7
-3 -7 -8 0 -6 -6 -10 -14 -10 -14 0 -118 -41 -126 -50 -3 -3 -9 -5 -15 -6 -26
-1 -65 -17 -65 -27 0 -6 -3 -7 -6 -4 -4 4 -20 -3 -35 -14 -16 -11 -29 -17 -29
-13 0 4 -9 -1 -20 -11 -11 -10 -20 -15 -20 -11 0 4 -7 1 -15 -6 -32 -29 -41
-34 -52 -31 -7 3 -21 -5 -32 -16 -12 -12 -23 -21 -26 -22 -27 -5 -45 -13 -45
-20 0 -5 -5 -9 -10 -9 -14 0 -93 -52 -103 -68 -5 -7 -12 -10 -18 -7 -5 4 -12
-1 -15 -9 -3 -9 -10 -13 -15 -10 -5 3 -9 -2 -9 -11 0 -9 -5 -13 -10 -10 -6 3
-13 -1 -16 -9 -3 -9 -10 -13 -15 -10 -5 3 -9 1 -9 -3 0 -5 -15 -17 -32 -28
-40 -23 -48 -30 -99 -76 -21 -20 -39 -34 -39 -31 0 3 -9 -5 -20 -18 -11 -13
-20 -20 -20 -17 0 3 -30 -23 -66 -59 -36 -35 -70 -64 -75 -64 -5 0 -9 -6 -9
-12 -1 -7 -18 -26 -39 -43 -21 -16 -37 -33 -35 -36 5 -9 -34 -38 -41 -31 -4 4
-5 2 -3 -4 2 -6 -24 -38 -57 -71 -33 -34 -73 -78 -90 -99 -16 -21 -35 -42 -40
-48 -6 -6 -28 -33 -50 -61 -22 -27 -48 -58 -57 -69 -10 -10 -15 -23 -12 -28 3
-4 -2 -8 -10 -8 -9 0 -16 -6 -16 -13 0 -8 -9 -22 -20 -32 -11 -10 -17 -21 -15
-25 3 -4 -1 -10 -8 -13 -7 -2 -26 -30 -42 -60 -16 -31 -33 -53 -39 -50 -6 3
-8 3 -4 -2 8 -9 -40 -105 -53 -105 -5 0 -8 -3 -7 -7 0 -5 -6 -25 -16 -45 -9
-21 -15 -39 -14 -40 2 -2 -7 -17 -20 -35 -12 -17 -22 -38 -22 -47 0 -9 -5 -16
-11 -16 -6 0 -9 -6 -6 -12 2 -7 -2 -25 -10 -40 -7 -16 -10 -28 -6 -28 5 0 2
-4 -5 -8 -7 -5 -14 -17 -16 -28 -2 -10 -10 -32 -17 -49 -7 -16 -11 -35 -10
-42 1 -6 -3 -14 -9 -18 -5 -3 -10 -17 -10 -30 0 -13 -4 -26 -9 -29 -7 -5 -16
-34 -25 -86 -1 -3 -5 -11 -10 -18 -4 -7 -6 -16 -3 -19 3 -3 2 -16 -3 -29 -12
-31 -21 -70 -25 -114 -2 -19 -4 -35 -5 -35 -1 0 -4 -20 -6 -45 -8 -77 -8 -80
-14 -80 -3 0 -5 -19 -6 -43 -3 -115 -22 -277 -33 -277 -4 0 -6 -14 -5 -30 1
-17 -2 -33 -7 -36 -5 -3 -7 -10 -3 -15 3 -5 -1 -22 -9 -38 -8 -17 -11 -35 -6
-42 4 -7 4 -18 -1 -24 -19 -23 -33 -385 -19 -498 3 -26 1 -51 -4 -54 -5 -3 -5
-8 1 -12 6 -3 11 -29 13 -56 1 -28 5 -54 8 -60 3 -5 6 -21 7 -35 3 -37 13
-100 24 -145 5 -22 9 -41 10 -42 0 -2 0 -4 1 -5 3 -10 10 -46 11 -60 1 -10 5
-18 8 -18 3 0 7 -12 8 -26 1 -14 5 -31 9 -37 4 -7 9 -18 10 -25 3 -12 4 -17
18 -64 4 -16 11 -28 17 -28 5 0 6 -5 3 -10 -3 -5 -3 -16 2 -22 4 -7 8 -19 9
-26 2 -8 6 -21 10 -30 4 -9 8 -19 9 -22 1 -3 8 -21 16 -40 7 -19 12 -38 11
-42 -1 -5 2 -8 6 -8 5 0 9 -6 9 -12 0 -7 12 -39 26 -71 15 -32 27 -62 27 -67
0 -6 4 -10 9 -10 5 0 11 -13 14 -29 3 -16 13 -35 21 -44 8 -8 12 -17 9 -21 -4
-3 -1 -6 5 -6 7 0 11 -3 10 -7 -3 -13 35 -83 44 -83 5 0 7 -4 3 -9 -3 -5 2
-16 10 -24 8 -9 15 -20 15 -26 0 -6 5 -11 10 -11 6 0 10 -6 10 -13 0 -7 9 -23
20 -35 12 -12 17 -22 13 -22 -4 0 0 -5 10 -11 9 -5 17 -16 17 -23 0 -7 9 -21
20 -31 11 -10 20 -22 20 -27 0 -5 6 -15 13 -23 6 -7 23 -27 37 -45 14 -18 30
-37 36 -44 6 -6 26 -32 46 -58 20 -26 39 -44 42 -41 3 4 6 0 6 -8 0 -8 28 -44
63 -81 34 -36 69 -75 78 -85 17 -20 153 -145 209 -192 19 -16 49 -41 65 -55
17 -14 35 -26 41 -26 7 0 15 -7 18 -16 4 -9 9 -14 12 -11 3 3 17 -4 31 -16 13
-12 34 -31 47 -42 27 -25 26 -24 53 -31 13 -4 21 -9 18 -13 -2 -4 18 -18 45
-32 27 -13 50 -27 50 -31 0 -5 6 -8 14 -8 7 0 19 -7 26 -15 7 -8 16 -13 20
-10 5 3 10 2 12 -2 4 -11 127 -73 143 -73 7 0 15 -3 17 -8 4 -9 131 -72 147
-72 6 0 11 -5 11 -11 0 -6 6 -9 13 -6 6 2 21 -3 31 -12 14 -12 17 -12 11 -2
-5 8 6 5 23 -8 18 -12 32 -19 32 -15 0 3 6 1 13 -5 8 -6 17 -8 20 -4 4 3 7 1
7 -6 0 -7 4 -10 9 -6 5 3 12 1 16 -5 4 -6 11 -8 16 -5 5 4 9 2 9 -3 0 -5 6 -9
13 -9 14 -1 80 -26 87 -33 3 -3 15 -6 28 -8 12 -2 34 -10 49 -17 15 -8 30 -12
35 -9 4 3 8 1 8 -4 0 -5 6 -9 13 -10 6 0 23 -3 37 -7 14 -3 30 -7 35 -8 6 -2
16 -6 23 -10 6 -5 16 -6 21 -3 4 3 16 -1 27 -8 10 -8 24 -12 31 -9 7 3 13 0
13 -7 0 -10 3 -10 15 0 8 7 15 8 15 3 0 -6 19 -14 43 -18 23 -4 51 -9 62 -11
59 -11 83 -15 110 -19 17 -2 48 -7 70 -10 43 -6 112 -15 160 -20 17 -2 32 -4
35 -5 13 -6 37 -5 58 2 12 4 22 4 22 -1 0 -5 93 -7 208 -6 114 1 207 3 207 4
0 2 126 14 163 15 12 1 22 3 22 6 0 3 17 6 38 7 35 2 77 9 77 13 0 1 14 4 30
6 47 8 70 12 70 14 0 1 16 3 35 5 33 4 69 11 80 16 3 1 10 3 15 4 6 2 13 4 18
5 11 4 20 6 52 14 17 4 38 12 48 17 10 5 22 7 27 4 6 -4 10 -2 10 3 0 5 6 9
13 10 6 0 19 3 27 5 79 21 110 32 110 37 0 3 8 6 18 7 9 1 31 7 47 14 17 7 36
13 44 15 8 1 17 6 20 11 3 4 11 8 16 8 25 0 144 59 138 68 -4 6 0 8 10 4 10
-3 17 -2 17 3 0 6 3 9 8 8 16 -3 118 55 134 77 4 5 8 6 8 2 0 -4 21 7 48 25
26 18 50 32 55 30 4 -1 7 5 7 14 0 8 5 12 10 9 6 -3 10 -1 10 5 0 6 4 9 9 6 5
-3 12 1 15 10 4 9 9 14 12 11 5 -5 47 29 110 90 13 12 32 24 42 27 11 4 38 24
61 45 22 21 41 37 41 36 0 -2 43 39 95 91 53 52 100 94 105 94 6 0 10 6 10 14
0 8 9 18 20 21 11 3 20 11 20 16 0 6 5 7 12 3 6 -4 8 -3 4 4 -3 6 3 17 14 25
11 7 17 17 13 20 -3 4 -1 7 5 7 7 0 12 7 12 15 0 21 27 62 67 105 18 19 33 38
33 43 0 4 5 5 10 2 6 -3 10 1 10 9 0 8 9 18 21 21 11 4 18 9 16 12 -5 4 40 53
48 53 3 0 62 56 132 125 70 69 131 125 135 125 4 0 8 7 8 16 0 8 5 12 10 9 6
-3 10 -2 10 4 0 5 14 23 30 39 17 17 30 28 30 24 0 -3 11 9 25 28 14 19 25 31
25 28 0 -3 17 11 38 31 22 20 37 39 35 44 -2 4 0 7 5 7 12 0 86 73 91 91 36
122 -30 220 -144 213 -65 -3 -75 -6 -75 -16 0 -4 -3 -7 -7 -7 -18 3 -33 -1
-30 -8 1 -5 -1 -9 -6 -10 -11 -4 -77 -76 -77 -85 0 -4 -7 -8 -15 -8 -8 0 -15
-5 -15 -10 0 -6 -29 -40 -65 -75 -36 -35 -65 -68 -65 -75 0 -6 -4 -9 -8 -6 -5
3 -16 -4 -25 -15 -9 -10 -14 -19 -10 -19 4 0 -8 -11 -27 -25 -19 -14 -30 -25
-25 -25 5 0 -2 -8 -15 -17 -14 -9 -29 -23 -33 -30 -5 -7 -12 -11 -18 -8 -5 4
-9 0 -9 -7 0 -36 -93 -60 -117 -30 -9 10 -12 11 -7 2 4 -8 3 -11 -1 -7 -14 12
-15 37 -2 37 8 0 7 3 -2 9 -23 15 -7 36 137 188 23 24 42 49 42 54 0 5 4 8 8
6 10 -2 212 201 212 214 0 5 4 8 9 6 12 -3 83 77 106 121 11 20 22 39 25 42 6
6 12 28 14 50 1 9 5 21 10 28 4 6 5 12 1 12 -3 0 65 70 150 155 86 85 161 155
166 155 6 0 8 4 4 9 -3 5 4 12 14 16 11 3 23 15 26 26 4 10 10 17 15 14 5 -3
12 4 15 16 4 11 9 18 12 15 6 -6 53 43 53 56 0 5 5 6 10 3 6 -3 10 0 10 7 0 7
9 19 20 26 12 7 18 17 15 22 -4 6 0 13 8 16 13 4 31 57 24 68 -1 1 4 10 12 19
11 14 11 17 0 17 -10 0 -11 3 -3 8 26 16 -9 172 -38 172 -6 0 -9 3 -5 6 9 10
-24 40 -72 65 -43 22 -161 37 -161 20 0 -7 -15 -11 -52 -12 -10 0 -18 -4 -18
-9 0 -5 -9 -12 -20 -15 -11 -4 -32 -17 -47 -31 -14 -13 -32 -24 -39 -24 -8 0
-13 -4 -11 -8 3 -11 -131 -141 -138 -134 -3 3 -5 -2 -5 -11 0 -9 -3 -17 -7
-17 -5 0 -26 -18 -48 -40 -22 -21 -42 -39 -46 -40 -13 -1 -274 -264 -271 -274
2 -6 0 -8 -4 -4 -4 5 -25 -10 -46 -32 -22 -22 -44 -40 -49 -40 -6 0 -7 -4 -4
-10 3 -5 -6 -12 -20 -16 -14 -3 -25 -10 -25 -15 0 -10 -31 1 -47 17 -7 7 -14
21 -16 31 -1 10 -6 24 -10 31 -5 7 -4 12 2 12 6 0 11 7 11 15 0 8 34 49 76 90
42 41 89 91 105 111 16 20 29 33 29 28 0 -4 7 1 15 12 8 10 15 16 15 12 0 -11
280 270 280 281 0 6 5 11 10 11 14 0 60 49 60 63 0 6 3 8 6 5 3 -3 20 10 37
29 18 19 49 52 70 73 20 22 37 42 37 45 0 10 28 35 39 35 5 0 13 9 16 20 4 11
11 18 16 15 5 -4 9 -2 9 2 0 13 158 173 170 173 5 0 10 4 10 10 0 5 34 43 75
84 41 41 75 79 75 85 0 6 3 10 8 9 4 -2 37 27 73 65 37 37 65 67 62 67 -2 0 2
7 9 15 7 8 18 20 23 27 6 7 17 22 25 33 9 11 10 16 3 11 -9 -5 -11 -2 -7 8 3
9 9 16 13 16 10 0 11 10 14 98 1 39 -1 72 -4 72 -7 0 -22 39 -20 51 0 4 -11
19 -24 33 -14 15 -25 31 -25 37 0 5 -7 9 -15 9 -8 0 -15 4 -15 8 0 9 -57 45
-80 50 -73 17 -187 -4 -238 -43 -27 -20 -228 -221 -250 -249 -12 -16 -22 -25
-22 -20 0 5 -4 4 -8 -2 -11 -18 -158 -176 -249 -270 -46 -47 -83 -89 -83 -95
0 -6 -3 -8 -7 -6 -5 2 -18 -7 -30 -20 -12 -13 -20 -23 -17 -23 2 0 -10 -15
-28 -33 -18 -18 -36 -32 -40 -30 -3 2 -12 -10 -19 -26 -7 -16 -17 -27 -21 -25
-4 3 -8 0 -8 -6 0 -6 -4 -8 -10 -5 -5 3 -10 0 -10 -7 0 -8 -12 -25 -27 -38
-16 -14 -45 -44 -65 -67 -20 -23 -39 -39 -42 -35 -3 3 -6 1 -6 -5 0 -6 -22
-34 -50 -62 -27 -28 -50 -56 -50 -62 0 -6 -4 -8 -9 -4 -5 3 -12 -4 -16 -15 -4
-11 -9 -19 -13 -17 -8 3 -62 -50 -56 -56 2 -2 -7 -10 -21 -17 -14 -7 -25 -20
-25 -28 0 -9 -3 -13 -6 -10 -3 4 -13 -1 -23 -10 -76 -73 -123 -106 -135 -95
-3 3 -6 1 -6 -6 0 -8 -8 -11 -20 -8 -11 3 -20 0 -20 -6 0 -7 -5 -4 -10 5 -11
18 -9 45 3 66 5 6 5 12 2 12 -3 0 6 11 20 24 15 14 24 30 20 35 -3 6 1 11 9
11 9 0 16 5 16 11 0 13 367 379 381 379 5 0 9 7 9 16 0 8 4 13 9 10 5 -3 11 3
14 14 3 11 13 20 22 20 9 0 13 5 10 10 -3 6 -1 10 5 10 6 0 8 5 5 10 -3 6 -1
10 5 10 6 0 8 5 5 10 -3 6 -2 10 3 10 5 0 15 12 23 28 7 15 20 35 29 44 26 30
35 42 48 71 7 17 17 25 24 21 6 -4 8 -3 5 3 -3 5 3 22 14 39 10 16 19 26 19
23 0 -10 76 66 96 96 19 28 21 85 4 95 -6 3 22 39 60 80 39 41 70 78 70 84 0
5 3 7 6 3 3 -3 20 11 37 31 18 20 36 39 40 41 5 2 55 49 111 105 56 55 117
113 135 129 18 15 29 27 25 27 -4 0 6 11 24 23 17 13 29 27 25 30 -3 4 0 7 7
7 15 0 60 46 60 61 0 6 5 7 10 4 6 -3 13 1 16 9 3 9 13 16 21 16 8 0 12 3 10
8 -5 9 30 42 37 35 3 -4 6 0 6 8 0 8 13 23 29 34 16 10 29 22 28 25 -4 9 102
107 109 101 4 -3 5 2 1 11 -3 9 0 19 8 22 7 2 25 29 40 58 22 43 28 69 30 141
2 48 0 87 -4 87 -4 0 -8 10 -8 22 -2 25 -23 69 -38 80 -5 4 -6 8 -2 8 8 0 4 7
-43 59 -16 18 -30 29 -30 25 0 -5 -5 -1 -11 9 -5 9 -16 17 -24 17 -7 0 -15 4
-17 9 -1 5 -14 11 -28 13 -14 1 -28 7 -31 11 -10 13 -149 16 -205 5 -27 -5
-55 -10 -61 -11 -7 0 -13 -4 -13 -7 0 -4 -13 -13 -30 -20 -16 -7 -43 -25 -60
-41 -16 -16 -34 -29 -39 -29 -5 0 -13 -9 -16 -20 -3 -11 -13 -20 -21 -20 -8 0
-13 -4 -10 -8 3 -5 -8 -19 -25 -32 -16 -14 -29 -30 -29 -37 0 -7 -5 -13 -11
-13 -13 0 -149 -139 -149 -152 0 -4 -7 -8 -17 -8 -9 0 -13 -3 -10 -6 4 -4 -10
-20 -30 -35 -20 -16 -33 -29 -31 -29 3 0 -15 -20 -40 -45 -24 -25 -49 -45 -53
-45 -5 0 -9 -4 -9 -10 0 -5 -16 -24 -36 -42 -20 -18 -44 -40 -52 -48 -9 -8
-18 -15 -21 -16 -3 0 -19 -6 -34 -12 -16 -7 -34 -12 -42 -12 -7 0 -16 -6 -18
-12 -4 -10 -8 -10 -15 1 -5 7 -14 11 -19 8 -6 -4 -17 -1 -26 6 -18 14 -31 67
-16 67 6 0 8 4 4 9 -3 6 3 14 12 20 10 6 15 11 11 11 -4 0 -1 8 7 18 8 9 16
22 17 27 1 6 8 16 15 23 7 8 11 18 7 23 -3 5 -1 8 6 7 6 -2 18 11 28 27 9 17
19 32 23 35 3 3 10 26 16 53 7 34 7 47 -1 47 -7 0 -8 3 -1 8 12 8 13 41 2 60
-5 6 -6 12 -2 12 7 0 -24 61 -41 77 -7 7 -17 13 -23 13 -6 0 -11 5 -11 10 0 6
-7 10 -15 10 -8 0 -15 4 -15 9 0 10 -69 37 -84 33 -4 -2 -14 2 -20 8 -7 5 -15
7 -19 4 -3 -3 -15 -3 -27 1 l-21 7 23 25 c67 73 168 175 168 169 0 -3 24 19
53 49 68 72 107 115 103 115 -2 0 22 26 53 58 30 31 60 56 66 54 5 -2 7 -1 4
3 -4 3 60 73 141 155 81 82 145 151 142 154 -3 3 -1 6 5 6 10 0 82 66 83 75 0
3 2 5 5 5 9 0 45 40 45 50 0 6 4 10 8 10 7 0 31 54 39 90 8 32 9 136 2 155
-20 53 -22 61 -20 68 0 4 -6 10 -14 13 -8 4 -15 14 -15 23 0 9 -9 22 -20 29
-12 7 -18 17 -15 22 3 6 1 10 -5 10 -6 0 -20 9 -32 20 -12 11 -28 20 -35 20
-7 0 -13 4 -13 8 0 20 -149 45 -205 35z m-3685 -1095 c1 23 30 -37 30 -62 0
-33 -41 -91 -55 -78 -5 4 -5 2 -2 -4 4 -7 -9 -29 -28 -50 -19 -21 -35 -44 -35
-52 0 -7 -4 -10 -10 -7 -5 3 -10 2 -10 -4 0 -24 -103 -50 -116 -29 -3 4 -10 5
-16 2 -7 -4 -8 -2 -4 4 4 7 3 12 -3 12 -6 0 -8 7 -5 15 4 8 1 15 -5 15 -14 0
7 50 28 68 8 6 11 12 7 12 -5 0 27 34 70 75 43 41 84 75 91 75 7 0 13 4 13 10
0 6 9 6 25 0 14 -5 25 -6 25 -2z m1990 -2623 c5 3 11 1 15 -5 3 -5 1 -10 -4
-10 -6 0 -11 -7 -11 -16 0 -9 -9 -28 -20 -44 -11 -15 -17 -30 -13 -34 3 -3 1
-6 -6 -6 -7 0 -9 -5 -6 -10 4 -6 3 -9 -2 -8 -4 1 -33 -23 -64 -55 -31 -31 -61
-57 -67 -57 -7 0 -12 -4 -12 -10 0 -5 -7 -10 -15 -10 -8 0 -15 -4 -15 -10 0
-5 -13 -10 -29 -10 -23 0 -30 6 -38 33 -7 26 -5 38 11 64 12 18 27 33 34 33 7
0 10 5 7 10 -3 6 -2 10 2 10 5 0 23 13 41 29 17 17 32 28 32 25 0 -3 13 8 30
23 48 45 70 63 70 58 0 -2 10 -1 23 4 12 5 23 5 25 0 2 -5 8 -7 12 -4z m705
-1464 c3 -5 -2 -16 -10 -24 -8 -9 -15 -20 -15 -24 0 -5 -9 -19 -20 -31 -12
-12 -18 -22 -15 -22 3 0 -3 -9 -12 -19 -10 -10 -31 -36 -48 -56 -16 -20 -51
-59 -77 -86 -25 -27 -44 -49 -41 -49 3 0 -6 -9 -21 -21 -14 -11 -26 -28 -26
-36 0 -9 -3 -14 -6 -11 -7 8 -44 -28 -44 -42 0 -5 -7 -10 -16 -10 -8 0 -13 -4
-10 -9 8 -13 -19 -44 -159 -186 -69 -69 -125 -130 -125 -135 0 -6 -4 -9 -9 -7
-5 1 -21 -13 -35 -32 -14 -19 -26 -32 -26 -29 0 4 -25 -19 -55 -51 -50 -53
-58 -58 -103 -60 -41 -2 -50 1 -60 21 -6 13 -12 30 -14 38 -3 23 11 70 22 70
6 0 10 4 10 10 0 5 11 20 25 34 14 14 25 23 25 21 0 -2 18 15 40 37 22 23 40
45 40 49 0 4 9 11 20 14 11 4 19 9 16 13 -5 10 41 52 48 45 3 -4 6 -2 6 3 0
14 57 74 64 67 3 -4 6 1 6 10 0 9 12 23 28 31 15 8 24 15 20 16 -8 0 69 78
141 143 23 20 39 37 36 37 -3 0 0 6 7 14 7 8 15 13 18 11 3 -2 16 12 30 31 14
18 29 34 33 34 4 0 18 10 31 23 43 42 95 87 101 87 3 0 15 9 27 20 12 11 28
20 35 20 8 0 12 4 9 8 -2 4 5 9 16 9 12 1 24 6 27 11 13 19 56 28 66 13z"/>
<path d="M6470 3399 c0 -5 5 -7 10 -4 6 3 10 8 10 11 0 2 -4 4 -10 4 -5 0 -10
-5 -10 -11z"/>
<path d="M6285 8573 c-11 -2 -27 -7 -35 -10 -8 -3 -23 -8 -33 -10 -20 -3 -34
-14 -77 -58 -50 -50 -57 -170 -16 -250 17 -33 52 -66 60 -58 3 4 6 1 6 -5 0
-6 14 -13 30 -17 17 -4 30 -10 30 -13 0 -14 100 -12 133 2 32 13 129 96 112
96 -4 0 -2 6 4 14 25 30 32 99 15 156 -15 53 -101 149 -118 133 -3 -4 -6 -2
-6 3 0 5 -8 10 -17 11 -10 1 -29 3 -43 6 -14 2 -34 2 -45 0z"/>
<path d="M4896 8545 c-25 -7 -49 -9 -53 -6 -3 3 -3 1 1 -6 3 -6 1 -15 -7 -20
-17 -11 -53 -68 -36 -57 12 6 12 5 1 -8 -7 -8 -11 -33 -10 -54 2 -30 12 -48
44 -80 36 -37 46 -41 90 -41 49 0 104 19 104 37 0 6 7 10 15 10 8 0 14 3 13 8
0 4 6 23 15 42 10 23 12 37 5 41 -7 4 -7 9 1 13 7 5 4 18 -9 40 -26 47 -52 76
-62 70 -4 -3 -8 -1 -8 4 0 16 -55 19 -104 7z"/>
<path d="M4248 8385 c-5 -5 -66 -17 -93 -19 -11 0 -22 -4 -25 -8 -3 -4 -21
-10 -40 -13 -19 -3 -38 -11 -42 -18 -6 -9 -8 -8 -8 3 0 12 -2 13 -9 1 -5 -7
-13 -11 -19 -7 -6 3 -14 1 -17 -5 -4 -5 -13 -8 -21 -5 -8 3 -14 1 -14 -5 0 -5
-6 -9 -12 -8 -7 1 -25 -3 -41 -9 -15 -7 -39 -14 -52 -16 -14 -3 -30 -8 -37
-13 -7 -4 -16 -8 -20 -9 -5 -1 -9 -2 -10 -4 -4 -2 -41 -11 -55 -12 -7 -1 -13
-5 -13 -9 0 -4 -16 -10 -35 -13 -19 -4 -35 -11 -35 -16 0 -6 -3 -9 -7 -8 -14
3 -63 -14 -63 -21 0 -4 -7 -8 -15 -9 -8 -1 -22 -3 -30 -4 -8 -1 -15 -5 -15
-10 0 -5 -4 -6 -10 -3 -5 3 -10 1 -10 -4 0 -6 -9 -11 -20 -11 -11 0 -20 -5
-20 -11 0 -5 -4 -7 -10 -4 -5 3 -10 1 -10 -5 0 -6 -4 -9 -8 -6 -5 3 -23 -4
-40 -15 -18 -10 -39 -19 -47 -19 -8 0 -15 -4 -15 -10 0 -5 -7 -10 -15 -10 -8
0 -15 -5 -15 -11 0 -5 -4 -8 -10 -4 -5 3 -18 -3 -30 -15 -11 -11 -20 -17 -20
-14 0 7 -63 -28 -72 -40 -3 -5 -15 -11 -25 -12 -9 -2 -19 -8 -21 -13 -2 -6
-10 -11 -18 -11 -8 0 -14 -5 -14 -11 0 -5 -4 -8 -9 -5 -5 3 -12 -1 -15 -10 -3
-8 -10 -13 -15 -9 -6 3 -13 -1 -18 -9 -4 -7 -24 -23 -43 -35 -19 -11 -31 -21
-26 -21 6 0 0 -10 -13 -21 -17 -16 -20 -24 -11 -33 15 -15 60 -15 60 1 0 7 6
13 13 13 7 0 30 16 52 35 22 19 45 35 51 35 7 0 15 7 18 16 3 8 10 12 16 9 5
-3 10 -1 10 5 0 6 4 9 8 6 5 -3 16 4 26 15 9 12 24 18 32 15 8 -3 14 1 14 10
0 8 5 12 10 9 6 -3 10 -1 10 4 0 6 3 10 8 9 16 -3 63 23 57 32 -4 6 -3 10 2 9
18 -5 62 14 67 28 3 8 10 11 16 8 5 -3 10 -1 10 5 0 6 5 8 10 5 6 -3 10 -1 10
5 0 6 4 9 8 6 5 -3 23 4 41 15 17 10 40 21 49 23 22 4 53 15 74 27 10 5 25 9
33 9 8 0 15 4 15 10 0 5 7 7 15 4 8 -4 15 -1 15 7 0 7 3 9 7 6 3 -4 17 0 30 8
13 9 28 13 32 10 5 -3 11 0 13 5 2 6 13 12 26 13 12 0 22 5 22 10 0 4 4 6 8 3
5 -3 20 1 35 9 15 8 27 12 27 9 0 -2 16 2 35 11 25 10 34 11 28 2 -5 -9 -3 -9
9 0 8 7 18 10 21 6 4 -3 7 -1 7 4 0 6 11 10 25 8 14 -1 25 2 25 7 0 5 3 7 8 5
4 -3 18 0 32 5 14 6 39 12 55 14 49 6 90 12 95 15 3 1 10 3 15 4 6 0 19 4 31
8 29 10 27 57 -3 68 -11 4 -23 6 -25 4z"/>
<path d="M8178 7909 c-15 -4 -30 -4 -34 0 -4 3 -4 0 0 -6 5 -9 1 -13 -12 -13
-23 0 -66 -44 -90 -94 -20 -41 -21 -134 -1 -147 6 -3 11 -10 11 -15 2 -54 73
-102 157 -107 34 -2 61 0 61 5 0 4 9 8 20 8 11 0 20 5 20 11 0 5 4 8 9 5 5 -3
20 5 34 18 14 13 28 21 31 18 3 -3 6 4 6 16 0 12 5 22 11 22 5 0 7 5 4 10 -3
6 -2 10 3 10 10 0 12 16 12 75 -1 57 -2 65 -12 65 -5 0 -6 4 -3 10 6 9 0 18
-32 54 -7 8 -9 17 -5 20 3 4 -1 4 -11 0 -9 -3 -17 -2 -17 4 0 24 -109 46 -162
31z"/>
<path d="M2591 7695 c-64 -50 -78 -73 -79 -129 0 -31 4 -56 9 -56 5 0 8 -3 8
-7 -7 -45 46 -81 113 -78 49 3 88 19 88 36 0 6 4 8 9 5 12 -8 39 52 45 97 2
20 0 39 -5 43 -5 3 -7 9 -4 14 3 5 -1 15 -9 23 -8 8 -12 17 -9 21 4 3 0 6 -8
6 -8 0 -20 5 -27 12 -21 21 -110 30 -131 13z"/>
<path d="M7617 7512 c-9 -2 -15 -8 -12 -13 4 -5 -1 -9 -9 -9 -9 0 -16 -7 -16
-17 0 -9 -3 -14 -6 -10 -7 7 -44 -29 -44 -43 0 -5 -4 -10 -9 -10 -4 0 -24 -15
-43 -32 -20 -18 -44 -41 -54 -50 -58 -53 -79 -95 -65 -131 9 -22 17 -27 46
-27 19 0 35 5 35 10 0 6 5 10 10 10 6 0 35 25 65 55 29 30 52 55 49 55 -3 0
19 21 48 46 29 26 57 55 62 65 5 11 13 19 19 19 5 0 7 7 4 15 -4 8 -2 17 3 20
13 8 -30 51 -50 51 -8 0 -23 -2 -33 -4z"/>
<path d="M2350 7288 c-21 -23 -27 -58 -9 -58 5 0 8 -4 5 -9 -3 -5 5 -11 19
-13 14 -3 25 -1 25 3 0 5 6 6 13 3 16 -6 47 45 44 74 -1 18 -7 22 -39 22 -25
0 -44 -7 -58 -22z"/>
<path d="M2189 7116 c-8 -6 -30 -32 -48 -58 -17 -27 -36 -48 -41 -48 -5 0 -12
-11 -16 -25 -4 -14 -9 -24 -11 -21 -9 8 -91 -109 -86 -122 3 -7 46 -42 51 -42
3 0 2 3 -1 6 -4 4 3 15 15 25 11 11 17 19 12 19 -5 0 2 7 14 16 12 8 19 20 16
26 -5 7 -2 8 5 4 8 -5 14 0 18 13 3 12 9 21 13 21 5 0 21 20 37 45 15 25 31
45 36 45 4 0 7 6 7 14 0 8 7 17 16 20 8 3 12 10 9 16 -3 5 -1 10 4 10 6 0 11
11 11 24 0 18 -5 24 -23 24 -13 0 -30 -6 -38 -12z"/>
<path d="M1876 6645 c-14 -13 -26 -31 -26 -40 0 -8 -4 -15 -10 -15 -5 0 -10
-9 -10 -20 0 -11 -4 -20 -9 -20 -5 0 -17 -20 -27 -45 -9 -25 -20 -45 -25 -45
-5 0 -6 -7 -3 -15 4 -8 2 -15 -4 -15 -9 0 -25 -37 -23 -52 1 -5 -4 -8 -10 -8
-5 0 -8 -4 -5 -9 3 -5 -4 -21 -16 -37 -13 -15 -16 -24 -8 -19 13 8 13 7 0 -9
-8 -10 -15 -26 -17 -35 -1 -10 -11 -38 -22 -63 -18 -42 -18 -48 -4 -68 14 -20
16 -20 34 -4 10 9 16 20 14 24 -3 4 2 13 10 20 8 7 15 16 15 20 0 4 12 34 27
66 15 33 28 61 28 64 1 3 17 37 37 77 20 39 33 74 30 77 -3 3 0 6 7 6 7 0 10
4 7 9 -3 5 1 14 9 21 8 7 12 16 9 21 -3 5 -1 9 4 9 7 0 42 60 48 83 1 4 2 8 4
10 1 1 3 10 5 20 5 26 -37 22 -69 -8z"/>
<path d="M1600 5949 c0 -5 -4 -8 -9 -4 -5 3 -15 -12 -21 -32 -6 -21 -14 -45
-17 -53 -21 -53 -61 -242 -68 -320 -2 -19 -4 -35 -5 -35 -4 0 -10 -46 -11 -93
-2 -53 8 -71 38 -72 25 0 31 25 48 189 3 29 13 83 21 120 8 36 16 75 18 86 2
11 13 47 24 80 34 104 36 122 13 134 -25 14 -31 14 -31 0z"/>
<path d="M8395 5100 c-3 -5 -11 -7 -18 -4 -18 7 -52 -36 -52 -66 0 -14 -4 -28
-10 -32 -6 -5 -5 -8 3 -8 7 0 10 -4 7 -10 -3 -5 0 -10 8 -10 8 0 18 -7 21 -16
4 -9 9 -14 13 -11 3 4 14 2 24 -4 11 -5 19 -6 19 -1 0 5 13 15 30 22 16 7 27
16 24 21 -3 5 0 9 6 9 6 0 8 5 5 10 -3 6 -1 10 6 10 8 0 8 4 -1 15 -7 9 -10
18 -7 22 4 3 2 12 -4 20 -6 7 -8 13 -3 13 8 1 -53 30 -62 30 -1 0 -5 -4 -9
-10z"/>
<path d="M1472 4985 c-7 -14 -9 -44 -7 -68 3 -23 7 -69 9 -101 6 -68 26 -97
54 -80 17 11 20 62 12 192 -5 67 -48 102 -68 57z"/>
<path d="M1496 4478 c-10 -14 -12 -27 -6 -38 5 -10 6 -20 3 -24 -3 -3 7 -6 23
-6 36 0 54 16 54 47 0 16 -8 27 -26 33 -33 13 -30 13 -48 -12z"/>
<path d="M8200 4121 c0 -6 -7 -7 -17 -4 -11 4 -14 3 -9 -5 4 -7 1 -12 -8 -12
-9 0 -16 -4 -16 -10 0 -5 -7 -10 -16 -10 -8 0 -13 -4 -9 -10 3 -5 -3 -18 -15
-30 -21 -21 -27 -74 -11 -98 4 -7 23 -16 41 -18 21 -4 30 -2 25 5 -3 6 1 11 9
11 20 0 89 67 103 101 11 25 4 50 -21 74 -15 14 -56 18 -56 6z"/>
<path d="M7833 3033 c-12 -12 -24 -19 -27 -15 -3 3 -6 0 -6 -7 0 -6 -52 -64
-115 -129 -63 -64 -115 -120 -115 -124 0 -5 -7 -8 -15 -8 -8 0 -15 -6 -15 -12
0 -7 -14 -22 -30 -33 -32 -21 -46 -54 -36 -80 6 -17 46 -21 46 -5 0 6 6 10 13
10 7 0 27 15 43 33 17 17 54 54 82 80 29 26 52 49 52 51 0 9 104 106 114 106
6 0 4 5 -4 10 -12 8 -12 10 -1 10 15 0 61 45 61 60 0 4 5 10 11 12 9 3 9 10 0
26 -7 13 -16 20 -21 17 -4 -3 -10 0 -12 7 -3 8 -12 4 -25 -9z"/>
<path d="M7231 2418 c-6 -17 -4 -27 8 -39 23 -23 47 -13 47 19 -1 45 -40 59
-55 20z"/>
</g>
</svg>
